<?xml version="1.0" standalone="no"?>
<!DOCTYPE svg PUBLIC "-//W3C//DTD SVG 20010904//EN"
 "http://www.w3.org/TR/2001/REC-SVG-20010904/DTD/svg10.dtd">
<svg version="1.0" xmlns="http://www.w3.org/2000/svg"
 width="260.000000pt" height="260.000000pt" viewBox="0 0 260.000000 260.000000"
 preserveAspectRatio="xMidYMid meet">
<metadata>
Created by potrace 1.14, written by Peter Selinger 2001-2017
</metadata>
<g transform="translate(0.000000,260.000000) scale(0.100000,-0.100000)"
fill="#000000" stroke="none">
<path d="M2 2366 l3 -51 172 0 c94 0 175 -4 180 -8 8 -8 14 -1860 6 -1884 -3
-6 -14 -13 -25 -16 -11 -3 -17 -10 -13 -16 3 -6 -5 -15 -20 -21 -14 -5 -24
-14 -21 -19 9 -14 -16 -27 -48 -26 -20 1 -30 -5 -34 -17 -6 -23 -21 -26 -119
-24 l-83 1 0 -51 0 -51 608 1 607 1 0 50 0 49 -85 2 c-112 2 -108 1 -115 23
-3 10 -13 18 -23 18 -41 0 -51 4 -57 23 -3 11 -13 20 -21 20 -8 0 -13 3 -13 8
3 20 -3 31 -18 34 -17 3 -18 47 -19 756 l0 753 25 -3 c18 -2 25 -8 23 -20 -2
-11 5 -18 20 -20 20 -3 23 -9 22 -40 -1 -21 2 -39 7 -39 5 -1 15 -2 22 -3 6 0
12 -8 12 -16 0 -8 8 -18 19 -23 11 -4 16 -13 12 -22 -5 -13 10 -20 36 -16 4 0
6 -15 4 -34 -1 -19 1 -36 6 -36 4 -1 14 -2 21 -3 6 0 13 -11 15 -24 2 -14 9
-22 20 -20 9 2 18 -6 21 -20 3 -13 9 -23 14 -23 23 2 27 -2 27 -35 0 -27 5
-37 20 -41 11 -3 20 -14 20 -24 0 -12 7 -19 20 -19 13 0 20 -7 20 -20 0 -13 7
-20 20 -20 16 0 20 -7 20 -35 0 -24 5 -35 15 -35 8 0 15 -9 15 -20 0 -13 7
-20 20 -20 13 0 20 -7 20 -20 0 -13 7 -20 20 -20 17 0 20 -7 20 -40 0 -33 3
-40 20 -40 13 0 20 -7 20 -20 0 -13 7 -20 20 -20 13 0 20 -7 20 -20 0 -11 5
-21 10 -21 6 -1 16 -2 22 -3 7 0 13 -16 13 -36 0 -22 5 -35 13 -35 8 0 20 -11
27 -25 8 -14 14 -21 15 -16 0 5 7 3 15 -4 8 -7 12 -16 9 -21 -3 -5 6 -13 20
-19 21 -8 25 -15 22 -41 -3 -24 1 -33 15 -36 11 -3 18 -13 17 -22 -2 -10 5
-17 20 -19 14 -2 22 -10 22 -23 0 -13 7 -19 21 -19 18 0 20 -5 17 -37 -3 -33
0 -38 20 -41 12 -2 22 -10 22 -18 0 -8 9 -14 20 -14 13 0 20 -7 20 -20 0 -13
7 -20 20 -20 17 0 20 -7 20 -40 0 -33 3 -40 20 -40 13 0 20 -7 20 -20 0 -13 7
-20 20 -20 13 0 20 -7 20 -20 0 -13 7 -20 19 -20 16 0 20 -8 23 -42 2 -24 8
-42 13 -41 6 1 13 -7 17 -18 4 -11 13 -17 19 -14 6 4 13 -2 16 -14 5 -19 15
-25 36 -22 4 0 7 -20 7 -45 0 -41 2 -45 20 -39 19 6 26 -7 21 -38 -1 -4 16 -7
36 -6 l38 3 0 1002 c0 969 1 1003 18 1008 11 2 16 9 13 15 -8 12 28 33 39 23
5 -4 5 -2 2 5 -11 18 20 42 48 37 18 -3 27 1 32 13 10 27 16 29 113 28 l90 -1
0 52 0 51 -390 0 -390 1 0 -52 0 -52 94 1 c87 1 95 -1 104 -21 7 -15 18 -21
39 -19 21 1 29 -4 33 -19 3 -12 12 -21 20 -21 8 0 17 -9 20 -20 3 -11 15 -21
25 -23 20 -3 20 -15 19 -755 l-1 -752 -27 -3 c-14 -2 -26 0 -25 5 4 22 -3 33
-22 33 -13 0 -20 6 -18 18 4 41 -2 62 -17 62 -9 0 -18 9 -21 20 -5 18 -9 21
-30 19 -5 0 -11 10 -14 23 -3 14 -12 22 -22 20 -12 -2 -17 7 -19 40 -2 28 -7
42 -15 40 -7 -1 -13 7 -13 18 0 14 -6 20 -17 18 -12 -2 -19 5 -21 20 -2 15 -9
22 -20 20 -13 -2 -18 6 -20 40 -3 34 -7 42 -23 42 -12 0 -19 7 -19 20 0 14 -7
20 -24 20 -19 0 -23 4 -19 19 4 15 -1 20 -19 23 -20 3 -23 8 -21 41 2 33 0 37
-22 37 -15 0 -23 5 -20 13 3 6 -5 17 -17 22 -13 6 -22 16 -20 23 1 7 -4 12
-12 12 -17 0 -23 16 -21 53 2 22 -2 27 -22 27 -19 0 -23 4 -18 19 4 15 0 20
-17 23 -12 2 -25 12 -28 23 -3 11 -12 20 -20 20 -10 0 -17 13 -20 40 -3 23
-10 40 -17 40 -7 0 -13 5 -14 10 0 6 -9 13 -21 18 -11 4 -22 16 -25 27 -3 11
-14 20 -24 20 -15 0 -19 7 -19 40 0 33 -3 40 -20 40 -13 0 -20 7 -20 20 0 11
-7 20 -15 20 -8 0 -15 9 -15 20 0 13 -7 20 -20 20 -17 0 -20 7 -20 40 0 33 -3
40 -20 40 -13 0 -20 7 -20 20 0 13 -7 20 -20 20 -11 0 -20 7 -20 15 0 8 -9 15
-20 15 -17 0 -20 7 -20 40 0 33 -3 40 -20 40 -13 0 -20 7 -20 20 0 13 -7 20
-20 20 -13 0 -20 7 -20 20 0 14 -7 20 -23 20 -19 0 -22 5 -21 34 2 33 -7 59
-20 57 -17 -3 -26 0 -25 7 3 19 -2 33 -11 27 -5 -3 -15 3 -22 15 -7 11 -18 20
-25 20 -8 0 -11 14 -10 37 1 24 -3 38 -10 39 -7 1 -18 2 -24 3 -6 0 -9 9 -6
20 4 18 -9 19 -430 18 l-434 0 3 -51z m518 -72 c4 -16 13 -20 50 -19 59 1 70
-3 70 -26 0 -10 3 -18 8 -18 22 4 32 -3 32 -23 0 -12 3 -18 7 -15 13 13 33
-16 33 -49 0 -24 5 -34 15 -34 8 0 15 -9 15 -20 0 -13 7 -20 20 -20 20 0 20
-7 20 -810 0 -803 0 -810 -20 -810 -13 0 -20 -7 -20 -20 0 -21 -2 -22 -67 -23
-34 0 -43 -4 -47 -21 -7 -29 -46 -30 -46 -1 0 20 -5 22 -57 21 -52 -1 -58 2
-63 22 -3 13 -8 23 -12 23 -5 -1 -14 -1 -20 -1 -10 0 -13 190 -12 920 1 506 4
926 7 933 3 8 20 13 43 12 29 0 40 -5 44 -21z"/>
</g>
</svg>
